<mxfile host="app.diagrams.net" modified="2024-01-04T20:31:26.391Z" agent="Mozilla/5.0 (Windows NT 10.0; Win64; x64) AppleWebKit/537.36 (KHTML, like Gecko) Chrome/120.0.0.0 Safari/537.36" etag="T7A_yYI20LXBlLUwofdH" version="22.1.16" type="github">
  <diagram id="R2lEEEUBdFMjLlhIrx00" name="Page-1">
    <mxGraphModel dx="1167" dy="712" grid="1" gridSize="10" guides="1" tooltips="1" connect="1" arrows="1" fold="1" page="1" pageScale="1" pageWidth="1654" pageHeight="2336" background="none" math="0" shadow="0" extFonts="Permanent Marker^https://fonts.googleapis.com/css?family=Permanent+Marker">
      <root>
        <mxCell id="0" />
        <mxCell id="1" parent="0" />
        <mxCell id="6MJcCJjL-EYpWunwH_33-34" style="edgeStyle=none;rounded=0;orthogonalLoop=1;jettySize=auto;html=1;exitX=0.5;exitY=0;exitDx=0;exitDy=0;entryX=1;entryY=0.5;entryDx=0;entryDy=0;" edge="1" parent="1" source="6MJcCJjL-EYpWunwH_33-1" target="6MJcCJjL-EYpWunwH_33-19">
          <mxGeometry relative="1" as="geometry" />
        </mxCell>
        <mxCell id="6MJcCJjL-EYpWunwH_33-36" style="edgeStyle=none;rounded=0;orthogonalLoop=1;jettySize=auto;html=1;exitX=1;exitY=0;exitDx=0;exitDy=0;entryX=0;entryY=0.5;entryDx=0;entryDy=0;" edge="1" parent="1" source="6MJcCJjL-EYpWunwH_33-1" target="6MJcCJjL-EYpWunwH_33-13">
          <mxGeometry relative="1" as="geometry" />
        </mxCell>
        <mxCell id="6MJcCJjL-EYpWunwH_33-42" style="edgeStyle=elbowEdgeStyle;rounded=0;orthogonalLoop=1;jettySize=auto;html=1;exitX=1;exitY=0.5;exitDx=0;exitDy=0;entryX=0;entryY=0.5;entryDx=0;entryDy=0;" edge="1" parent="1" source="6MJcCJjL-EYpWunwH_33-1" target="6MJcCJjL-EYpWunwH_33-18">
          <mxGeometry relative="1" as="geometry" />
        </mxCell>
        <mxCell id="6MJcCJjL-EYpWunwH_33-57" value="" style="edgeStyle=none;rounded=0;orthogonalLoop=1;jettySize=auto;html=1;" edge="1" parent="1" source="6MJcCJjL-EYpWunwH_33-1" target="6MJcCJjL-EYpWunwH_33-17">
          <mxGeometry relative="1" as="geometry" />
        </mxCell>
        <mxCell id="6MJcCJjL-EYpWunwH_33-59" style="edgeStyle=none;rounded=0;orthogonalLoop=1;jettySize=auto;html=1;exitX=0;exitY=0.5;exitDx=0;exitDy=0;entryX=0.5;entryY=0;entryDx=0;entryDy=0;" edge="1" parent="1" source="6MJcCJjL-EYpWunwH_33-1" target="6MJcCJjL-EYpWunwH_33-16">
          <mxGeometry relative="1" as="geometry" />
        </mxCell>
        <mxCell id="6MJcCJjL-EYpWunwH_33-61" style="edgeStyle=none;rounded=0;orthogonalLoop=1;jettySize=auto;html=1;exitX=0.5;exitY=1;exitDx=0;exitDy=0;entryX=0.5;entryY=0;entryDx=0;entryDy=0;" edge="1" parent="1" source="6MJcCJjL-EYpWunwH_33-1" target="6MJcCJjL-EYpWunwH_33-21">
          <mxGeometry relative="1" as="geometry" />
        </mxCell>
        <mxCell id="6MJcCJjL-EYpWunwH_33-74" style="edgeStyle=none;rounded=0;orthogonalLoop=1;jettySize=auto;html=1;exitX=0.5;exitY=0;exitDx=0;exitDy=0;entryX=0.5;entryY=1;entryDx=0;entryDy=0;" edge="1" parent="1" source="6MJcCJjL-EYpWunwH_33-1" target="6MJcCJjL-EYpWunwH_33-63">
          <mxGeometry relative="1" as="geometry" />
        </mxCell>
        <mxCell id="6MJcCJjL-EYpWunwH_33-1" value="User" style="whiteSpace=wrap;html=1;align=center;" vertex="1" parent="1">
          <mxGeometry x="120" y="600" width="100" height="40" as="geometry" />
        </mxCell>
        <mxCell id="6MJcCJjL-EYpWunwH_33-2" value="My Profile" style="whiteSpace=wrap;html=1;align=center;" vertex="1" parent="1">
          <mxGeometry x="40" y="440" width="100" height="40" as="geometry" />
        </mxCell>
        <mxCell id="6MJcCJjL-EYpWunwH_33-3" value="Office centers" style="whiteSpace=wrap;html=1;align=center;" vertex="1" parent="1">
          <mxGeometry x="120" y="840" width="100" height="40" as="geometry" />
        </mxCell>
        <mxCell id="6MJcCJjL-EYpWunwH_33-4" value="My Trips" style="whiteSpace=wrap;html=1;align=center;" vertex="1" parent="1">
          <mxGeometry x="10" y="1080" width="100" height="30" as="geometry" />
        </mxCell>
        <mxCell id="6MJcCJjL-EYpWunwH_33-5" value="About Application" style="whiteSpace=wrap;html=1;align=center;" vertex="1" parent="1">
          <mxGeometry x="180" y="350" width="100" height="40" as="geometry" />
        </mxCell>
        <mxCell id="6MJcCJjL-EYpWunwH_33-38" style="edgeStyle=none;rounded=0;orthogonalLoop=1;jettySize=auto;html=1;exitX=0.5;exitY=0;exitDx=0;exitDy=0;entryX=0;entryY=0.5;entryDx=0;entryDy=0;" edge="1" parent="1" source="6MJcCJjL-EYpWunwH_33-6" target="6MJcCJjL-EYpWunwH_33-14">
          <mxGeometry relative="1" as="geometry" />
        </mxCell>
        <mxCell id="6MJcCJjL-EYpWunwH_33-6" value="Feedback" style="whiteSpace=wrap;html=1;align=center;" vertex="1" parent="1">
          <mxGeometry x="370" y="480" width="100" height="40" as="geometry" />
        </mxCell>
        <mxCell id="6MJcCJjL-EYpWunwH_33-68" value="" style="edgeStyle=none;rounded=0;orthogonalLoop=1;jettySize=auto;html=1;" edge="1" parent="1" source="6MJcCJjL-EYpWunwH_33-8" target="6MJcCJjL-EYpWunwH_33-12">
          <mxGeometry relative="1" as="geometry" />
        </mxCell>
        <mxCell id="6MJcCJjL-EYpWunwH_33-84" value="" style="edgeStyle=none;rounded=0;orthogonalLoop=1;jettySize=auto;html=1;" edge="1" parent="1" source="6MJcCJjL-EYpWunwH_33-8" target="6MJcCJjL-EYpWunwH_33-23">
          <mxGeometry relative="1" as="geometry" />
        </mxCell>
        <mxCell id="6MJcCJjL-EYpWunwH_33-88" value="" style="edgeStyle=none;rounded=0;orthogonalLoop=1;jettySize=auto;html=1;" edge="1" parent="1" source="6MJcCJjL-EYpWunwH_33-8" target="6MJcCJjL-EYpWunwH_33-73">
          <mxGeometry relative="1" as="geometry" />
        </mxCell>
        <mxCell id="6MJcCJjL-EYpWunwH_33-8" value="Bus Operators" style="whiteSpace=wrap;html=1;align=center;" vertex="1" parent="1">
          <mxGeometry x="600" y="360" width="100" height="40" as="geometry" />
        </mxCell>
        <mxCell id="6MJcCJjL-EYpWunwH_33-66" value="" style="edgeStyle=none;rounded=0;orthogonalLoop=1;jettySize=auto;html=1;" edge="1" parent="1" source="6MJcCJjL-EYpWunwH_33-9" target="6MJcCJjL-EYpWunwH_33-11">
          <mxGeometry relative="1" as="geometry" />
        </mxCell>
        <mxCell id="6MJcCJjL-EYpWunwH_33-9" value="discount / offers / exclusive deals" style="whiteSpace=wrap;html=1;align=center;" vertex="1" parent="1">
          <mxGeometry x="570" y="645" width="100" height="40" as="geometry" />
        </mxCell>
        <mxCell id="6MJcCJjL-EYpWunwH_33-45" style="edgeStyle=none;rounded=0;orthogonalLoop=1;jettySize=auto;html=1;exitX=1;exitY=0.5;exitDx=0;exitDy=0;entryX=0;entryY=0.5;entryDx=0;entryDy=0;" edge="1" parent="1" source="6MJcCJjL-EYpWunwH_33-10" target="6MJcCJjL-EYpWunwH_33-44">
          <mxGeometry relative="1" as="geometry" />
        </mxCell>
        <mxCell id="6MJcCJjL-EYpWunwH_33-10" value="Ticket" style="whiteSpace=wrap;html=1;align=center;" vertex="1" parent="1">
          <mxGeometry x="400" y="760" width="100" height="40" as="geometry" />
        </mxCell>
        <mxCell id="6MJcCJjL-EYpWunwH_33-67" value="" style="edgeStyle=none;rounded=0;orthogonalLoop=1;jettySize=auto;html=1;" edge="1" parent="1" source="6MJcCJjL-EYpWunwH_33-11" target="6MJcCJjL-EYpWunwH_33-10">
          <mxGeometry relative="1" as="geometry" />
        </mxCell>
        <mxCell id="6MJcCJjL-EYpWunwH_33-11" value="applied on" style="shape=rhombus;perimeter=rhombusPerimeter;whiteSpace=wrap;html=1;align=center;" vertex="1" parent="1">
          <mxGeometry x="400" y="625" width="90" height="60" as="geometry" />
        </mxCell>
        <mxCell id="6MJcCJjL-EYpWunwH_33-69" value="" style="edgeStyle=none;rounded=0;orthogonalLoop=1;jettySize=auto;html=1;" edge="1" parent="1" source="6MJcCJjL-EYpWunwH_33-12" target="6MJcCJjL-EYpWunwH_33-9">
          <mxGeometry relative="1" as="geometry" />
        </mxCell>
        <mxCell id="6MJcCJjL-EYpWunwH_33-12" value="provides" style="shape=rhombus;perimeter=rhombusPerimeter;whiteSpace=wrap;html=1;align=center;" vertex="1" parent="1">
          <mxGeometry x="570" y="520" width="80" height="50" as="geometry" />
        </mxCell>
        <mxCell id="6MJcCJjL-EYpWunwH_33-37" style="edgeStyle=none;rounded=0;orthogonalLoop=1;jettySize=auto;html=1;exitX=1;exitY=0.5;exitDx=0;exitDy=0;entryX=0;entryY=0.5;entryDx=0;entryDy=0;" edge="1" parent="1" source="6MJcCJjL-EYpWunwH_33-13" target="6MJcCJjL-EYpWunwH_33-6">
          <mxGeometry relative="1" as="geometry" />
        </mxCell>
        <mxCell id="6MJcCJjL-EYpWunwH_33-13" value="provides" style="shape=rhombus;perimeter=rhombusPerimeter;whiteSpace=wrap;html=1;align=center;" vertex="1" parent="1">
          <mxGeometry x="270" y="520" width="80" height="60" as="geometry" />
        </mxCell>
        <mxCell id="6MJcCJjL-EYpWunwH_33-39" value="" style="edgeStyle=none;rounded=0;orthogonalLoop=1;jettySize=auto;html=1;" edge="1" parent="1" source="6MJcCJjL-EYpWunwH_33-14" target="6MJcCJjL-EYpWunwH_33-8">
          <mxGeometry relative="1" as="geometry" />
        </mxCell>
        <mxCell id="6MJcCJjL-EYpWunwH_33-14" value="given to" style="shape=rhombus;perimeter=rhombusPerimeter;whiteSpace=wrap;html=1;align=center;" vertex="1" parent="1">
          <mxGeometry x="440" y="360" width="70" height="40" as="geometry" />
        </mxCell>
        <mxCell id="6MJcCJjL-EYpWunwH_33-60" style="edgeStyle=none;rounded=0;orthogonalLoop=1;jettySize=auto;html=1;exitX=0.5;exitY=1;exitDx=0;exitDy=0;entryX=0.5;entryY=0;entryDx=0;entryDy=0;" edge="1" parent="1" source="6MJcCJjL-EYpWunwH_33-16" target="6MJcCJjL-EYpWunwH_33-4">
          <mxGeometry relative="1" as="geometry" />
        </mxCell>
        <mxCell id="6MJcCJjL-EYpWunwH_33-16" value="can see" style="shape=rhombus;perimeter=rhombusPerimeter;whiteSpace=wrap;html=1;align=center;" vertex="1" parent="1">
          <mxGeometry x="20" y="867.5" width="80" height="40" as="geometry" />
        </mxCell>
        <mxCell id="6MJcCJjL-EYpWunwH_33-58" value="" style="edgeStyle=none;rounded=0;orthogonalLoop=1;jettySize=auto;html=1;" edge="1" parent="1" source="6MJcCJjL-EYpWunwH_33-17" target="6MJcCJjL-EYpWunwH_33-3">
          <mxGeometry relative="1" as="geometry" />
        </mxCell>
        <mxCell id="6MJcCJjL-EYpWunwH_33-17" value="view" style="shape=rhombus;perimeter=rhombusPerimeter;whiteSpace=wrap;html=1;align=center;" vertex="1" parent="1">
          <mxGeometry x="140" y="720" width="70" height="40" as="geometry" />
        </mxCell>
        <mxCell id="6MJcCJjL-EYpWunwH_33-43" style="edgeStyle=elbowEdgeStyle;rounded=0;orthogonalLoop=1;jettySize=auto;html=1;exitX=1;exitY=0.5;exitDx=0;exitDy=0;entryX=0;entryY=0.5;entryDx=0;entryDy=0;" edge="1" parent="1" source="6MJcCJjL-EYpWunwH_33-18" target="6MJcCJjL-EYpWunwH_33-10">
          <mxGeometry relative="1" as="geometry" />
        </mxCell>
        <mxCell id="6MJcCJjL-EYpWunwH_33-18" value="books" style="shape=rhombus;perimeter=rhombusPerimeter;whiteSpace=wrap;html=1;align=center;" vertex="1" parent="1">
          <mxGeometry x="290" y="685" width="70" height="50" as="geometry" />
        </mxCell>
        <mxCell id="6MJcCJjL-EYpWunwH_33-35" style="edgeStyle=none;rounded=0;orthogonalLoop=1;jettySize=auto;html=1;exitX=0.5;exitY=0;exitDx=0;exitDy=0;entryX=0.5;entryY=1;entryDx=0;entryDy=0;" edge="1" parent="1" source="6MJcCJjL-EYpWunwH_33-19" target="6MJcCJjL-EYpWunwH_33-2">
          <mxGeometry relative="1" as="geometry" />
        </mxCell>
        <mxCell id="6MJcCJjL-EYpWunwH_33-19" value="update / view" style="shape=rhombus;perimeter=rhombusPerimeter;whiteSpace=wrap;html=1;align=center;" vertex="1" parent="1">
          <mxGeometry x="40" y="520" width="100" height="50" as="geometry" />
        </mxCell>
        <mxCell id="6MJcCJjL-EYpWunwH_33-20" value="Travel Blogs" style="whiteSpace=wrap;html=1;align=center;" vertex="1" parent="1">
          <mxGeometry x="235" y="1080" width="100" height="40" as="geometry" />
        </mxCell>
        <mxCell id="6MJcCJjL-EYpWunwH_33-62" style="edgeStyle=none;rounded=0;orthogonalLoop=1;jettySize=auto;html=1;exitX=0.5;exitY=1;exitDx=0;exitDy=0;entryX=0.5;entryY=0;entryDx=0;entryDy=0;" edge="1" parent="1" source="6MJcCJjL-EYpWunwH_33-21" target="6MJcCJjL-EYpWunwH_33-20">
          <mxGeometry relative="1" as="geometry" />
        </mxCell>
        <mxCell id="6MJcCJjL-EYpWunwH_33-21" value="view / post" style="shape=rhombus;perimeter=rhombusPerimeter;whiteSpace=wrap;html=1;align=center;" vertex="1" parent="1">
          <mxGeometry x="245" y="850" width="80" height="50" as="geometry" />
        </mxCell>
        <mxCell id="6MJcCJjL-EYpWunwH_33-83" value="" style="edgeStyle=none;rounded=0;orthogonalLoop=1;jettySize=auto;html=1;" edge="1" parent="1" source="6MJcCJjL-EYpWunwH_33-23" target="6MJcCJjL-EYpWunwH_33-81">
          <mxGeometry relative="1" as="geometry" />
        </mxCell>
        <mxCell id="6MJcCJjL-EYpWunwH_33-23" value="gets" style="shape=rhombus;perimeter=rhombusPerimeter;whiteSpace=wrap;html=1;align=center;" vertex="1" parent="1">
          <mxGeometry x="800" y="355" width="70" height="50" as="geometry" />
        </mxCell>
        <mxCell id="6MJcCJjL-EYpWunwH_33-47" style="edgeStyle=none;rounded=0;orthogonalLoop=1;jettySize=auto;html=1;exitX=0.5;exitY=1;exitDx=0;exitDy=0;entryX=0.5;entryY=0;entryDx=0;entryDy=0;" edge="1" parent="1" source="6MJcCJjL-EYpWunwH_33-24" target="6MJcCJjL-EYpWunwH_33-27">
          <mxGeometry relative="1" as="geometry" />
        </mxCell>
        <mxCell id="6MJcCJjL-EYpWunwH_33-49" style="edgeStyle=none;rounded=0;orthogonalLoop=1;jettySize=auto;html=1;exitX=1;exitY=0.5;exitDx=0;exitDy=0;entryX=0;entryY=0.5;entryDx=0;entryDy=0;" edge="1" parent="1" source="6MJcCJjL-EYpWunwH_33-24" target="6MJcCJjL-EYpWunwH_33-30">
          <mxGeometry relative="1" as="geometry" />
        </mxCell>
        <mxCell id="6MJcCJjL-EYpWunwH_33-80" style="edgeStyle=none;rounded=0;orthogonalLoop=1;jettySize=auto;html=1;exitX=0.5;exitY=0;exitDx=0;exitDy=0;entryX=0.5;entryY=1;entryDx=0;entryDy=0;" edge="1" parent="1" source="6MJcCJjL-EYpWunwH_33-24" target="6MJcCJjL-EYpWunwH_33-78">
          <mxGeometry relative="1" as="geometry" />
        </mxCell>
        <mxCell id="6MJcCJjL-EYpWunwH_33-24" value="Bus" style="whiteSpace=wrap;html=1;align=center;" vertex="1" parent="1">
          <mxGeometry x="657" y="827.5" width="100" height="40" as="geometry" />
        </mxCell>
        <mxCell id="6MJcCJjL-EYpWunwH_33-25" value="Seat" style="whiteSpace=wrap;html=1;align=center;" vertex="1" parent="1">
          <mxGeometry x="657" y="1090" width="100" height="40" as="geometry" />
        </mxCell>
        <mxCell id="6MJcCJjL-EYpWunwH_33-26" value="Bus Route" style="whiteSpace=wrap;html=1;align=center;" vertex="1" parent="1">
          <mxGeometry x="950" y="680" width="100" height="40" as="geometry" />
        </mxCell>
        <mxCell id="6MJcCJjL-EYpWunwH_33-48" style="edgeStyle=none;rounded=0;orthogonalLoop=1;jettySize=auto;html=1;exitX=0.5;exitY=1;exitDx=0;exitDy=0;entryX=0.5;entryY=0;entryDx=0;entryDy=0;" edge="1" parent="1" source="6MJcCJjL-EYpWunwH_33-27" target="6MJcCJjL-EYpWunwH_33-25">
          <mxGeometry relative="1" as="geometry" />
        </mxCell>
        <mxCell id="6MJcCJjL-EYpWunwH_33-27" value="has" style="shape=rhombus;perimeter=rhombusPerimeter;whiteSpace=wrap;html=1;align=center;" vertex="1" parent="1">
          <mxGeometry x="647" y="940" width="120" height="60" as="geometry" />
        </mxCell>
        <mxCell id="6MJcCJjL-EYpWunwH_33-55" style="edgeStyle=none;rounded=0;orthogonalLoop=1;jettySize=auto;html=1;exitX=0.5;exitY=0;exitDx=0;exitDy=0;entryX=0.5;entryY=1;entryDx=0;entryDy=0;" edge="1" parent="1" source="6MJcCJjL-EYpWunwH_33-28" target="6MJcCJjL-EYpWunwH_33-29">
          <mxGeometry relative="1" as="geometry" />
        </mxCell>
        <mxCell id="6MJcCJjL-EYpWunwH_33-28" value="Driver" style="whiteSpace=wrap;html=1;align=center;" vertex="1" parent="1">
          <mxGeometry x="950" y="1030" width="100" height="40" as="geometry" />
        </mxCell>
        <mxCell id="6MJcCJjL-EYpWunwH_33-56" style="edgeStyle=none;rounded=0;orthogonalLoop=1;jettySize=auto;html=1;exitX=0.5;exitY=0;exitDx=0;exitDy=0;entryX=0.5;entryY=1;entryDx=0;entryDy=0;" edge="1" parent="1" source="6MJcCJjL-EYpWunwH_33-29" target="6MJcCJjL-EYpWunwH_33-26">
          <mxGeometry relative="1" as="geometry" />
        </mxCell>
        <mxCell id="6MJcCJjL-EYpWunwH_33-29" value="for this" style="shape=rhombus;perimeter=rhombusPerimeter;whiteSpace=wrap;html=1;align=center;" vertex="1" parent="1">
          <mxGeometry x="960" y="850" width="80" height="60" as="geometry" />
        </mxCell>
        <mxCell id="6MJcCJjL-EYpWunwH_33-50" style="edgeStyle=none;rounded=0;orthogonalLoop=1;jettySize=auto;html=1;exitX=1;exitY=0.5;exitDx=0;exitDy=0;entryX=0;entryY=0.5;entryDx=0;entryDy=0;" edge="1" parent="1" source="6MJcCJjL-EYpWunwH_33-30" target="6MJcCJjL-EYpWunwH_33-26">
          <mxGeometry relative="1" as="geometry" />
        </mxCell>
        <mxCell id="6MJcCJjL-EYpWunwH_33-30" value="has" style="shape=rhombus;perimeter=rhombusPerimeter;whiteSpace=wrap;html=1;align=center;" vertex="1" parent="1">
          <mxGeometry x="810" y="730" width="70" height="50" as="geometry" />
        </mxCell>
        <mxCell id="6MJcCJjL-EYpWunwH_33-51" style="edgeStyle=none;rounded=0;orthogonalLoop=1;jettySize=auto;html=1;exitX=0.5;exitY=1;exitDx=0;exitDy=0;entryX=0.5;entryY=0;entryDx=0;entryDy=0;" edge="1" parent="1" source="6MJcCJjL-EYpWunwH_33-31" target="6MJcCJjL-EYpWunwH_33-32">
          <mxGeometry relative="1" as="geometry" />
        </mxCell>
        <mxCell id="6MJcCJjL-EYpWunwH_33-31" value="Conductor" style="whiteSpace=wrap;html=1;align=center;" vertex="1" parent="1">
          <mxGeometry x="950" y="440" width="100" height="40" as="geometry" />
        </mxCell>
        <mxCell id="6MJcCJjL-EYpWunwH_33-52" style="edgeStyle=none;rounded=0;orthogonalLoop=1;jettySize=auto;html=1;exitX=0.5;exitY=1;exitDx=0;exitDy=0;" edge="1" parent="1" source="6MJcCJjL-EYpWunwH_33-32" target="6MJcCJjL-EYpWunwH_33-26">
          <mxGeometry relative="1" as="geometry" />
        </mxCell>
        <mxCell id="6MJcCJjL-EYpWunwH_33-32" value="for this" style="shape=rhombus;perimeter=rhombusPerimeter;whiteSpace=wrap;html=1;align=center;" vertex="1" parent="1">
          <mxGeometry x="960" y="540" width="80" height="50" as="geometry" />
        </mxCell>
        <mxCell id="6MJcCJjL-EYpWunwH_33-46" style="edgeStyle=none;rounded=0;orthogonalLoop=1;jettySize=auto;html=1;exitX=1;exitY=0.5;exitDx=0;exitDy=0;entryX=0.5;entryY=0;entryDx=0;entryDy=0;" edge="1" parent="1" source="6MJcCJjL-EYpWunwH_33-44" target="6MJcCJjL-EYpWunwH_33-24">
          <mxGeometry relative="1" as="geometry" />
        </mxCell>
        <mxCell id="6MJcCJjL-EYpWunwH_33-44" value="for" style="shape=rhombus;perimeter=rhombusPerimeter;whiteSpace=wrap;html=1;align=center;" vertex="1" parent="1">
          <mxGeometry x="570" y="745" width="70" height="45" as="geometry" />
        </mxCell>
        <mxCell id="6MJcCJjL-EYpWunwH_33-75" style="edgeStyle=none;rounded=0;orthogonalLoop=1;jettySize=auto;html=1;exitX=0.5;exitY=0;exitDx=0;exitDy=0;entryX=0.5;entryY=1;entryDx=0;entryDy=0;" edge="1" parent="1" source="6MJcCJjL-EYpWunwH_33-63" target="6MJcCJjL-EYpWunwH_33-5">
          <mxGeometry relative="1" as="geometry" />
        </mxCell>
        <mxCell id="6MJcCJjL-EYpWunwH_33-63" value="reads" style="shape=rhombus;perimeter=rhombusPerimeter;whiteSpace=wrap;html=1;align=center;" vertex="1" parent="1">
          <mxGeometry x="219" y="450" width="71" height="50" as="geometry" />
        </mxCell>
        <mxCell id="6MJcCJjL-EYpWunwH_33-86" value="" style="edgeStyle=none;rounded=0;orthogonalLoop=1;jettySize=auto;html=1;" edge="1" parent="1" source="6MJcCJjL-EYpWunwH_33-70" target="6MJcCJjL-EYpWunwH_33-72">
          <mxGeometry relative="1" as="geometry" />
        </mxCell>
        <mxCell id="6MJcCJjL-EYpWunwH_33-70" value="verifies" style="shape=rhombus;perimeter=rhombusPerimeter;whiteSpace=wrap;html=1;align=center;" vertex="1" parent="1">
          <mxGeometry x="800" y="130" width="120" height="60" as="geometry" />
        </mxCell>
        <mxCell id="6MJcCJjL-EYpWunwH_33-85" value="" style="edgeStyle=none;rounded=0;orthogonalLoop=1;jettySize=auto;html=1;" edge="1" parent="1" source="6MJcCJjL-EYpWunwH_33-71" target="6MJcCJjL-EYpWunwH_33-70">
          <mxGeometry relative="1" as="geometry" />
        </mxCell>
        <mxCell id="6MJcCJjL-EYpWunwH_33-71" value="Admin" style="whiteSpace=wrap;html=1;align=center;" vertex="1" parent="1">
          <mxGeometry x="910" y="260" width="100" height="40" as="geometry" />
        </mxCell>
        <mxCell id="6MJcCJjL-EYpWunwH_33-72" value="Registration Documents" style="whiteSpace=wrap;html=1;align=center;" vertex="1" parent="1">
          <mxGeometry x="600" y="120" width="100" height="40" as="geometry" />
        </mxCell>
        <mxCell id="6MJcCJjL-EYpWunwH_33-89" value="" style="edgeStyle=none;rounded=0;orthogonalLoop=1;jettySize=auto;html=1;" edge="1" parent="1" source="6MJcCJjL-EYpWunwH_33-73" target="6MJcCJjL-EYpWunwH_33-72">
          <mxGeometry relative="1" as="geometry" />
        </mxCell>
        <mxCell id="6MJcCJjL-EYpWunwH_33-73" value="submits" style="shape=rhombus;perimeter=rhombusPerimeter;whiteSpace=wrap;html=1;align=center;" vertex="1" parent="1">
          <mxGeometry x="600" y="220" width="120" height="60" as="geometry" />
        </mxCell>
        <mxCell id="6MJcCJjL-EYpWunwH_33-79" value="" style="edgeStyle=none;rounded=0;orthogonalLoop=1;jettySize=auto;html=1;" edge="1" parent="1" source="6MJcCJjL-EYpWunwH_33-78" target="6MJcCJjL-EYpWunwH_33-81">
          <mxGeometry relative="1" as="geometry">
            <mxPoint x="831.25" y="573.125" as="targetPoint" />
          </mxGeometry>
        </mxCell>
        <mxCell id="6MJcCJjL-EYpWunwH_33-78" value="provides" style="shape=rhombus;perimeter=rhombusPerimeter;whiteSpace=wrap;html=1;align=center;" vertex="1" parent="1">
          <mxGeometry x="775" y="630" width="90" height="55" as="geometry" />
        </mxCell>
        <mxCell id="6MJcCJjL-EYpWunwH_33-81" value="Bus Tracking Info" style="whiteSpace=wrap;html=1;align=center;" vertex="1" parent="1">
          <mxGeometry x="785" y="500" width="100" height="40" as="geometry" />
        </mxCell>
      </root>
    </mxGraphModel>
  </diagram>
</mxfile>
